<?xml version="1.0" encoding="UTF-8"?>
<svg width="18px" height="18px" viewBox="0 0 18 18" version="1.1" xmlns="http://www.w3.org/2000/svg" xmlns:xlink="http://www.w3.org/1999/xlink">
    <!-- Generator: Sketch 46.2 (44496) - http://www.bohemiancoding.com/sketch -->
    <title>i-instagram</title>
    <desc>Created with Sketch.</desc>
    <defs></defs>
    <g id="Page-1" stroke="none" stroke-width="1" fill="none" fill-rule="evenodd">
        <g id="i-instagram" fill-rule="nonzero" fill="#333333">
            <path d="M15.057,0.924 L2.943,0.924 C1.803,0.924 0.924,1.803 0.924,2.943 L0.924,15.056 C0.924,16.196 1.803,17.075 2.943,17.075 L15.056,17.075 C16.196,17.075 17.075,16.196 17.075,15.056 L17.075,2.943 C17.076,1.803 16.196,0.924 15.057,0.924 Z M9.012,5.827 C10.803,5.827 12.255,7.234 12.255,8.969 C12.255,10.704 10.803,12.111 9.012,12.111 C7.222,12.111 5.77,10.703 5.77,8.969 C5.77,7.234 7.222,5.827 9.012,5.827 Z M15.057,14.552 C15.057,14.906 14.906,15.057 14.552,15.057 L3.448,15.057 C3.095,15.057 2.943,14.906 2.943,14.552 L2.943,7.486 L4.201,7.76 C4.066,8.199 3.993,8.663 3.993,9.145 C3.993,11.829 6.241,14.008 9.011,14.008 C11.783,14.008 14.03,11.83 14.03,9.145 C14.03,8.663 13.957,8.199 13.822,7.76 L15.056,7.486 L15.056,14.552 L15.057,14.552 Z M15.057,5.467 C15.057,5.746 14.831,5.972 14.552,5.972 L12.533,5.972 C12.254,5.972 12.028,5.746 12.028,5.467 L12.028,3.448 C12.028,3.169 12.254,2.943 12.533,2.943 L14.552,2.943 C14.831,2.943 15.057,3.169 15.057,3.448 L15.057,5.467 Z" id="Shape"></path>
        </g>
    </g>
</svg>