<?xml version="1.0" encoding="UTF-8"?>
<svg width="549px" height="314px" viewBox="0 0 549 314" version="1.1" xmlns="http://www.w3.org/2000/svg" xmlns:xlink="http://www.w3.org/1999/xlink">
    <!-- Generator: Sketch 46.2 (44496) - http://www.bohemiancoding.com/sketch -->
    <title>i-vk</title>
    <desc>Created with Sketch.</desc>
    <defs></defs>
    <g id="Page-1" stroke="none" stroke-width="1" fill="none" fill-rule="evenodd">
        <g id="i-vk" transform="translate(-1.000000, 0.000000)" fill-rule="nonzero" fill="#333333">
            <path d="M546.45,283.3 C545.786,281.869 545.167,280.682 544.592,279.731 C535.078,262.596 516.897,241.564 490.06,216.629 L489.493,216.058 L489.209,215.778 L488.922,215.491 L488.634,215.491 C476.454,203.88 468.741,196.073 465.511,192.076 C459.601,184.462 458.277,176.755 461.507,168.946 C463.789,163.046 472.361,150.586 487.203,131.549 C495.01,121.46 501.193,113.374 505.759,107.282 C538.69,63.502 552.967,35.526 548.587,23.343 L546.886,20.496 C545.743,18.782 542.793,17.214 538.04,15.784 C533.276,14.357 527.187,14.121 519.762,15.072 L437.538,15.64 C436.206,15.168 434.304,15.212 431.826,15.784 C429.351,16.356 428.113,16.643 428.113,16.643 L426.682,17.358 L425.546,18.217 C424.594,18.785 423.547,19.784 422.404,21.212 C421.267,22.635 420.316,24.305 419.556,26.208 C410.604,49.239 400.426,70.652 389.003,90.446 C381.96,102.249 375.492,112.478 369.585,121.139 C363.686,129.797 358.737,136.176 354.743,140.265 C350.743,144.358 347.133,147.637 343.891,150.114 C340.654,152.592 338.183,153.639 336.472,153.256 C334.757,152.873 333.142,152.493 331.613,152.113 C328.95,150.399 326.808,148.068 325.193,145.118 C323.571,142.168 322.479,138.455 321.908,133.982 C321.34,129.506 321.004,125.656 320.908,122.419 C320.819,119.186 320.86,114.613 321.053,108.713 C321.251,102.81 321.34,98.816 321.34,96.722 C321.34,89.488 321.481,81.637 321.764,73.167 C322.052,64.697 322.285,57.986 322.48,53.042 C322.674,48.093 322.764,42.857 322.764,37.337 C322.764,31.817 322.428,27.488 321.764,24.346 C321.108,21.208 320.101,18.162 318.774,15.209 C317.439,12.259 315.485,9.977 312.921,8.357 C310.352,6.739 307.158,5.455 303.357,4.501 C293.268,2.218 280.421,0.983 264.81,0.791 C229.409,0.411 206.662,2.697 196.574,7.646 C192.577,9.737 188.96,12.594 185.726,16.208 C182.299,20.397 181.821,22.683 184.295,23.059 C195.717,24.77 203.803,28.863 208.562,35.334 L210.277,38.763 C211.611,41.237 212.943,45.617 214.276,51.897 C215.607,58.177 216.466,65.124 216.844,72.734 C217.794,86.631 217.794,98.527 216.844,108.423 C215.891,118.323 214.991,126.03 214.132,131.55 C213.273,137.07 211.989,141.543 210.277,144.968 C208.562,148.394 207.421,150.488 206.849,151.248 C206.278,152.008 205.802,152.487 205.424,152.675 C202.95,153.623 200.377,154.106 197.714,154.106 C195.047,154.106 191.813,152.772 188.007,150.106 C184.202,147.44 180.253,143.778 176.16,139.114 C172.067,134.449 167.451,127.93 162.31,119.556 C157.173,111.182 151.843,101.285 146.323,89.865 L141.756,81.583 C138.901,76.255 135.001,68.497 130.052,58.316 C125.1,48.131 120.723,38.279 116.918,28.762 C115.397,24.765 113.112,21.722 110.067,19.628 L108.638,18.769 C107.688,18.009 106.163,17.202 104.071,16.342 C101.976,15.483 99.79,14.867 97.504,14.488 L19.275,15.056 C11.281,15.056 5.857,16.867 3.001,20.484 L1.858,22.195 C1.287,23.148 0.999,24.67 0.999,26.765 C0.999,28.859 1.57,31.429 2.713,34.472 C14.133,61.312 26.552,87.197 39.97,112.131 C53.388,137.065 65.048,157.15 74.943,172.368 C84.84,187.597 94.928,201.97 105.207,215.48 C115.486,228.995 122.29,237.656 125.619,241.461 C128.952,245.273 131.57,248.123 133.473,250.026 L140.612,256.877 C145.18,261.446 151.888,266.918 160.739,273.293 C169.592,279.672 179.393,285.952 190.147,292.143 C200.903,298.324 213.416,303.368 227.693,307.269 C241.968,311.174 255.862,312.741 269.377,311.985 L302.211,311.985 C308.87,311.41 313.915,309.316 317.344,305.702 L318.48,304.271 C319.244,303.135 319.959,301.37 320.619,298.995 C321.287,296.616 321.619,293.995 321.619,291.144 C321.424,282.961 322.047,275.586 323.471,269.02 C324.894,262.456 326.516,257.507 328.33,254.174 C330.143,250.844 332.189,248.034 334.466,245.756 C336.748,243.473 338.374,242.09 339.328,241.614 C340.276,241.135 341.033,240.81 341.604,240.615 C346.172,239.093 351.548,240.567 357.74,245.044 C363.927,249.517 369.73,255.04 375.158,261.604 C380.583,268.174 387.101,275.545 394.713,283.728 C402.33,291.914 408.99,297.999 414.698,302.002 L420.406,305.428 C424.218,307.714 429.167,309.808 435.259,311.711 C441.34,313.613 446.668,314.089 451.243,313.138 L524.33,311.998 C531.559,311.998 537.184,310.801 541.174,308.426 C545.172,306.047 547.547,303.426 548.313,300.575 C549.077,297.721 549.118,294.483 548.458,290.863 C547.781,287.252 547.114,284.727 546.45,283.3 L546.45,283.3 Z" id="Shape"></path>
        </g>
    </g>
</svg>